<?xml version="1.0" encoding="iso-8859-1"?>
<!-- Generator: Adobe Illustrator 18.0.0, SVG Export Plug-In . SVG Version: 6.00 Build 0)  -->
<!DOCTYPE svg PUBLIC "-//W3C//DTD SVG 1.1//EN" "http://www.w3.org/Graphics/SVG/1.1/DTD/svg11.dtd">
<svg version="1.1" id="Capa_1" xmlns="http://www.w3.org/2000/svg" xmlns:xlink="http://www.w3.org/1999/xlink" x="0px" y="0px"
	 viewBox="0 0 392.62 392.62" style="enable-background:new 0 0 392.62 392.62;" xml:space="preserve">
<g>
	<path d="M322.406,86.405H70.213v25h210.74l-13.961,13.96H70.214v25h171.779l-13.961,13.961H70.213v25h132.818l-13.961,13.96H70.686
		v25h93.385l-13.961,13.961H70.686v25h66.303l-5.37,13.961H70.213v25h51.797c-2.054,5.499-0.717,11.697,3.441,15.854
		c2.866,2.866,6.701,4.394,10.609,4.394c1.808,0,3.632-0.327,5.382-1l55.154-21.213c1.959-0.753,3.738-1.909,5.222-3.394
		l33.601-33.601h86.516v-25h-61.516l13.961-13.961h47.555v-25h-22.555l13.96-13.96h9.066v-9.066l32.146-32.147
		c5.858-5.857,5.858-15.355,0-21.213l-32.146-32.146V86.405z M182.855,277.385l-20.683,7.955l7.955-20.684l139.878-139.877
		l12.728,12.728L182.855,277.385z"/>
	<polygon style="fill:#FFFFFF;" points="310.005,124.779 170.127,264.656 162.172,285.34 182.855,277.385 322.732,137.507 	"/>
	<path d="M310.725,0.93H81.896C36.739,0.93,0,37.668,0,82.825v226.969c0,45.158,36.739,81.896,81.896,81.896h228.828
		c45.157,0,81.896-36.738,81.896-81.896V82.825C392.62,37.668,355.882,0.93,310.725,0.93z M362.62,309.794
		c0,28.616-23.28,51.896-51.896,51.896H81.896C53.281,361.69,30,338.41,30,309.794V82.825C30,54.21,53.281,30.93,81.896,30.93
		h228.828c28.615,0,51.896,23.28,51.896,51.896V309.794z"/>
</g>
<g>
</g>
<g>
</g>
<g>
</g>
<g>
</g>
<g>
</g>
<g>
</g>
<g>
</g>
<g>
</g>
<g>
</g>
<g>
</g>
<g>
</g>
<g>
</g>
<g>
</g>
<g>
</g>
<g>
</g>
</svg>
